<?xml version="1.0" encoding="utf-8"?>
<!-- Generator: Adobe Illustrator 16.0.3, SVG Export Plug-In . SVG Version: 6.00 Build 0)  -->
<!DOCTYPE svg PUBLIC "-//W3C//DTD SVG 1.1//EN" "http://www.w3.org/Graphics/SVG/1.1/DTD/svg11.dtd">
<svg version="1.1" id="Calque_1" xmlns="http://www.w3.org/2000/svg" xmlns:xlink="http://www.w3.org/1999/xlink" x="0px" y="0px"
	 width="612px" height="396px" viewBox="0 0 612 396" enable-background="new 0 0 612 396" xml:space="preserve">
<g>
	<path d="M483.688,369.298l0.388,0.451l4.321,4.808l-4.709,2.851V369.298z M478.053,371.287l-0.632,0.331l0.092,0.284
		c0.505-0.307,0.723-0.284,0.89-0.259c0.604,0.148,0.739,0.713,0.768,1.073v10.773c0,0.673,0.259,1.089,0.688,1.383l3.023,1.906
		c0.6,0.451,1.349,0.878,1.661,1.052l0.091,0.057l0.007-0.003c0.031,0.019,0.054,0.031,0.054,0.031c0.116,0,3.156-1.677,4.396-2.364
		l1.503-0.776l-0.215-0.209c-1.206,0.717-1.584,0.65-1.988,0.594h-0.028c-0.452-0.154-1.357-0.679-2.238-1.222l-1.964-1.326
		c-0.429-0.296-0.473-0.501-0.473-1.048v-3.769l8.428-4.987l-5.805-6.2l-6.411,3.678
		C479.798,370.314,478.563,371.003,478.053,371.287 M465.562,369.093l3.804-2.162l0.322-0.174v17.92l-0.259-0.142l-3.056-1.926
		c-0.6-0.379-0.814-0.672-0.814-1.427v-12.09H465.562z M459.914,371.839l-0.631,0.332l0.092,0.28c0.505-0.303,0.72-0.28,0.89-0.256
		c0.729,0.178,0.773,0.976,0.776,1.27l0.004-0.01v9.615c0,0.922,0.259,1.301,0.858,1.676l5.161,3.142l6.348-3.63
		c0.104-0.032,1.332-0.721,1.844-1.004l0.631-0.329l-0.091-0.28c-0.506,0.303-0.72,0.28-0.891,0.256
		c-0.729-0.181-0.776-0.976-0.776-1.27l-0.01,0.031v-16.814c0-2.599-1.206-4.271-3.182-5.445l-1.936-1.175l-2.891,1.645
		c-0.433,0.233-1.026,0.571-1.345,0.745l-0.632,0.332l0.089,0.28c0.508-0.306,0.833-0.31,1.003-0.28l0.237,0.034
		c0.271,0.051,0.581,0.146,1.076,0.395v-0.003l0.868,0.495c1.376,0.752,2.282,2.264,2.282,3.813v0.669l-9.031,5.066
		C460.375,371.58,460.098,371.735,459.914,371.839 M436.659,369.346l0.483-0.243c0.372-0.218,1.029-0.148,2.111,0.704l1.913,1.297
		c0.061,0.805,0.025,11.683,0.025,11.683c0.01,1.253,0.126,2.639-0.107,3.558c-0.228,1.127-0.697,1.383-0.786,1.519l0.199,0.192
		c0.508-0.287,3.671-2.213,3.671-2.213c0.727-0.417,1.114-0.959,1.244-1.196c0.438-0.786,0.436-1.906,0.426-3.04
		c-0.01-1.02-0.003-10.981-0.003-10.981c-0.107-1.253,0.802-1.9,2.011-1.149c0.303,0.155,1.061,0.594,1.882,1.076
		c0.413,0.313,0.46,0.642,0.46,1.238v11.37l0.01-0.025v0.003c-0.006,1.001-0.107,2.049,0.253,2.844
		c0.388,0.745,2.598,1.91,2.598,1.91c0.117,0.003,3.16-1.67,4.4-2.361l1.499-0.773l-0.214-0.208
		c-1.203,0.713-1.715,0.663-2.115,0.603h-0.003c-1.73-0.42-1.841-2.285-1.847-2.977c-0.02-1.935-0.038-12.292-0.038-12.292
		c0-0.013,0-0.016,0-0.021v-0.004c0-0.587-0.215-1.048-0.817-1.382l-2.295-1.275c-0.612-0.379-1.102-0.67-1.149-0.67
		c0,0-4.826,2.889-4.943,2.883c0,0-4.126-2.896-4.227-2.896c0,0-4.577,2.529-4.641,2.488V369.346L436.659,369.346z M426.05,380.877
		l0.044-11.203l0.256,0.101l3.396,1.923c0.688,0.379,0.818,0.713,0.818,1.427v11.373l-0.256-0.142l-3.529-2.015
		C426.18,382.01,426.05,381.631,426.05,380.877 M420.453,371.069l-0.631,0.328l0.088,0.28c0.509-0.303,0.723-0.283,0.894-0.259
		c0.647,0.161,0.755,0.806,0.773,1.155v10.228c0,1.001,0.259,1.383,0.902,1.759l5.461,3.144l6.702-3.819
		c0.42-0.221,1.187-0.65,1.565-0.861l0.632-0.329l-0.092-0.28c-0.509,0.303-0.723,0.28-0.891,0.256
		c-0.685-0.168-0.767-0.875-0.776-1.203v-10.438c0-0.584-0.215-1.049-0.817-1.383l-5.55-3.227l-6.411,3.64h0.004
		C422.256,370.062,420.975,370.775,420.453,371.069 M398.407,363.433c0.073,0.976,0.028,18.378,0.028,18.378
		c0.013,1.525,0.151,3.204-0.126,4.315c-0.274,1.367-0.837,1.676-0.94,1.844l0.236,0.23c0.609-0.354,4.397-2.689,4.397-2.689
		c0.868-0.499,1.332-1.159,1.49-1.446c0.526-0.956,0.521-2.308,0.508-3.687c-0.01-1.237-0.003-17.529-0.003-17.529
		c-0.13-1.518,0.963-2.301,2.408-1.392c0.944,0.482,5.571,3.299,5.571,3.299c-2.374,1.237-2.705,3.153-2.752,5
		c-0.022,0.909-0.004,12.699-0.004,12.699c-0.006,1.206-0.126,2.475,0.304,3.443c0.464,0.903,3.112,2.32,3.112,2.32
		c0.139,0,3.781-2.029,5.269-2.863l1.799-0.943l-0.259-0.249c-1.442,0.864-2.052,0.805-2.535,0.731
		c-2.07-0.505-2.206-2.768-2.212-3.61c-0.022-2.349-0.004-13.482-0.004-13.482c0.016-0.915,0.092-2.049,0.363-2.794
		c0.471-1.284,2.342-2.8,3.476-3.548c0,0,0-0.003-0.003-0.006l-0.271-0.266c-0.42,0.31-1.459,1.206-2.699,0.574
		c0,0-5.843-3.879-6.014-3.882c0,0-5.779,3.5-5.918,3.494c0,0-4.943-3.507-5.061-3.507c0,0-5.486,3.068-5.559,3.015
		c-0.342-1.402-1.219-2.052-1.393-2.2c-0.445-0.373-1.111-0.686-1.844-0.752c-1.834-0.18-2.97,0.37-4.236,0.776
		c0,0-2.209,0.786-2.758,0.878c-0.465,0.092-0.773,0.102-1.061-0.126c-0.404-0.303-0.234-0.789-0.039-1.117
		c0.092-0.152,0.212-0.301,0.313-0.43c0.08-0.102,0.689-0.812,0.821-0.969l-0.192-0.189c-0.679,0.584-2.067,1.66-2.705,2.342
		l-0.004-0.003c0,0-1.426,1.319-1.656,2.695c-0.121,0.742,0.068,1.91,1.127,2.481c1.152,0.622,2.865,0.171,2.865,0.171
		s2.015-0.594,2.999-0.859c0.423-0.113,2.188-0.726,2.188,0.855l0.018,11.377c0.017,1.519,0.045,3.197-0.236,4.312
		c-0.24,1.37-0.836,1.67-0.956,1.838l0.23,0.227c0.632-0.359,4.583-2.677,4.583-2.677c0.871-0.505,1.336-1.161,1.49-1.448
		c0.527-0.954,0.521-2.312,0.512-3.685l-0.01-12.32c0.006-0.805,0.65-2.108,3.049-0.208L398.407,363.433z M376.554,387.824
		l0.167,0.164c0.705-0.758,1.664-1.301,3.043-1.288c2.586,0.025,4.827,1.25,7.32,1.554l8.508-5.319l-0.259-0.252
		c-1.411,1.016-3.16,1.032-3.268,1.061c-0.019,0-0.034,0.003-0.047,0.003c-3.239,0.101-5.335-1.099-8.233-1.121
		C380.115,382.594,376.926,384.927,376.554,387.824 M345.467,368.875l-1.502,0.779l0.218,0.206c1.202-0.717,1.714-0.666,2.115-0.604
		c1.729,0.417,1.843,2.285,1.85,2.974c0.016,1.938,0.038,12.299,0.038,12.299c0,0.006,0,0.009,0,0.016v0.006
		c0,0.587,0.215,1.045,0.817,1.383l2.295,1.272c0.609,0.375,1.099,0.666,1.149,0.669c0,0,4.826-2.889,4.943-2.882
		c0,0,4.125,2.892,4.223,2.892c0,0,4.58-2.529,4.644-2.484v-0.345l-0.483,0.25c-0.372,0.211-1.028,0.142-2.114-0.707l-1.913-1.295
		c-0.061-0.808-0.021-11.683-0.021-11.683c-0.014-1.256-0.127-2.642,0.107-3.561c0.227-1.13,0.697-1.383,0.785-1.521l-0.199-0.189
		c-0.508,0.291-3.671,2.216-3.671,2.216c-0.726,0.414-1.114,0.96-1.247,1.193c-0.438,0.786-0.436,1.907-0.422,3.04
		c0.009,1.022,0.002,10.981,0.002,10.981c0.107,1.257-0.805,1.907-2.01,1.152c-0.304-0.154-1.064-0.593-1.882-1.073
		c-0.413-0.315-0.461-0.644-0.461-1.24v-11.373l-0.009,0.025v-0.004c0.002-0.991,0.104-2.039-0.253-2.838
		c-0.389-0.744-2.599-1.916-2.599-1.916C349.751,366.514,346.708,368.19,345.467,368.875 M333.293,369.093l3.807-2.162l0.321-0.174
		v17.92l-0.259-0.142l-3.053-1.926c-0.603-0.379-0.817-0.672-0.817-1.427L333.293,369.093L333.293,369.093z M327.014,372.171
		l0.092,0.28c0.505-0.303,0.72-0.28,0.891-0.256c0.729,0.178,0.775,0.976,0.779,1.27v-0.01v9.615c0,0.922,0.259,1.301,0.861,1.676
		l5.161,3.142l6.345-3.63c0.104-0.032,1.332-0.721,1.844-1.004l0.631-0.329l-0.088-0.28c-0.508,0.303-0.723,0.28-0.894,0.256
		c-0.726-0.181-0.773-0.976-0.776-1.27l-0.01,0.031v-16.814c0-2.599-1.205-4.271-3.182-5.445l-1.936-1.175l-2.891,1.645
		c-0.43,0.233-1.026,0.571-1.346,0.745l-0.631,0.332l0.092,0.28c0.505-0.306,0.83-0.31,1-0.28l0.237,0.034
		c0.271,0.051,0.581,0.146,1.077,0.395v-0.003l0.871,0.495c1.376,0.752,2.279,2.264,2.279,3.813v0.669l-9.029,5.066
		c-0.287,0.158-0.564,0.316-0.748,0.417L327.014,372.171z"/>
	<g>
		<path d="M173.974,386.795c-0.776-0.474-2.762-1.638-4.65-2.234v-5.107l10.262-8.46l-0.296-0.174
			c-1.91-1.117-4.148-2.654-5.439-3.737l-0.161-0.136l-0.154,0.146c-1.055,0.972-2.762,2.295-4.909,3.062l-0.187,0.066l0.029,0.195
			c0.066,0.493,0.098,0.967,0.098,1.572v12.343c-0.293-0.066-0.578-0.114-0.83-0.139l-0.262-0.022v0.714l0.211,0.024
			c2.081,0.237,5.266,2.103,6.219,2.737l0.158,0.104l5.78-5.502l0.164-0.154l-0.477-0.578L173.974,386.795z M169.324,378.487v-6.538
			c0-0.571-0.025-0.953-0.053-1.246c1.695-0.727,3.185-1.661,4.435-2.781c1.13,0.906,3.021,2.206,4.602,3.172L169.324,378.487z"/>
		<path d="M215.035,384.737c-0.698,0.669-1.765,1.534-2.516,2.108l-0.095-0.057c-0.736-0.43-1.497-0.871-1.667-2.462v-13.902
			l1.162-0.931l-0.477-0.578l-1.045,0.84l-2.914-2.774l-6.259,5.438v-2.272l-0.066-0.066c-0.805-0.858-1.806-1.828-3.059-2.955
			l-0.158-0.142l-6.259,5.436v-1.897c-0.165-1.215-1.193-2.159-2.188-3.074l-0.511-0.471l-2.421,2.197l-0.17,0.158l0.477,0.571
			l2.108-1.929c0.903,0.833,1.831,1.695,1.948,2.61v14.479c-0.319-0.212-0.65-0.413-0.899-0.565l-0.363-0.214v0.864l0.117,0.069
			c1.212,0.727,2.45,1.629,3.501,2.415l0.151,0.114l0.145-0.12c1.197-1.007,2.453-1.907,3.094-2.352l0.215-0.148l-0.48-0.581
			l-0.183,0.133c-0.398,0.287-1.739,1.256-2.813,2.114c-0.524-0.369-1.137-0.805-1.733-1.225v-12.175l6.256-5.433
			c0.805,0.694,1.796,1.686,2.528,2.44v14.659c-0.262-0.174-0.562-0.363-0.906-0.565l-0.363-0.211v0.861l0.117,0.069
			c1.234,0.739,2.519,1.68,3.504,2.415l0.152,0.113l0.145-0.119c1.184-0.998,2.446-1.904,3.09-2.353l0.215-0.151l-0.48-0.577
			l-0.183,0.133c-0.653,0.47-1.859,1.356-2.81,2.114c-0.524-0.369-1.139-0.805-1.733-1.225v-12.175l6.244-5.427l2.541,2.44v13.983
			c0.227,1.951,1.174,2.517,2.086,3.065c0.104,0.063,0.208,0.123,0.313,0.189l0.139,0.085l0.132-0.095
			c0.922-0.672,1.935-1.506,2.86-2.342l0.17-0.155l-0.483-0.584L215.035,384.737z"/>
		<path d="M316.565,381.518l-5.553,5.277c-0.78-0.477-2.778-1.641-4.653-2.234v-5.107l9.998-8.239l0.268-0.218l-0.3-0.174
			c-1.906-1.117-4.142-2.654-5.436-3.737l-0.161-0.136l-0.158,0.146c-1.054,0.973-2.765,2.295-4.908,3.062l-0.186,0.066l0.028,0.196
			c0.066,0.47,0.098,0.943,0.098,1.571v12.343c-0.293-0.066-0.578-0.113-0.83-0.139l-0.262-0.022v0.499l-0.06,0.066
			c-0.688,0.656-1.727,1.499-2.519,2.105c-0.032-0.02-0.063-0.038-0.095-0.057c-0.704-0.414-1.5-0.881-1.667-2.459v-13.902
			l1.162-0.931l-0.48-0.575l-1.048,0.837c-0.783-0.732-2.027-1.79-3.109-2.639l-0.161-0.127l-6.588,6.093v-2.561
			c-0.164-1.215-1.19-2.159-2.185-3.074l-0.508-0.471l-2.592,2.355l0.48,0.571l2.108-1.929c0.903,0.833,1.831,1.695,1.948,2.61
			v14.479c-0.31-0.205-0.635-0.404-0.903-0.565l-0.363-0.214v0.864l0.117,0.069c1.222,0.729,2.456,1.633,3.504,2.415l0.151,0.114
			l0.145-0.124c1.108-0.934,2.292-1.793,3.09-2.348l0.215-0.152l-0.48-0.577l-0.183,0.133c-0.395,0.287-1.729,1.253-2.809,2.118
			l-0.341-0.243c-0.442-0.313-0.921-0.653-1.395-0.985v-11.496l6.616-6.118c0.918,0.698,2.118,1.73,2.854,2.45v13.987
			c0.23,1.947,1.174,2.516,2.09,3.062c0.104,0.066,0.208,0.126,0.313,0.192l0.139,0.085l0.133-0.095
			c0.928-0.679,1.97-1.53,2.857-2.345l0.167-0.151l-0.164-0.202c2.083,0.338,5.073,2.093,5.989,2.705l0.16,0.104l5.787-5.502
			l0.164-0.155L316.565,381.518z M306.36,378.487v-6.538c0-0.584-0.025-0.969-0.054-1.246c1.696-0.727,3.185-1.661,4.438-2.781
			c1.14,0.909,3.031,2.21,4.603,3.172L306.36,378.487z"/>
		<path d="M167.683,382.212l-0.48-0.574l-0.186,0.151c-1.695,1.383-3.488,3.109-5.054,4.644l-0.291-0.146
			c-2.134-1.076-4.555-2.295-7.803-2.295c-0.894,0-1.872,0.146-2.901,0.426c1.149-0.71,3.109-1.909,6.512-3.989l0.117-0.066v-11.724
			c0-2.75,1.222-3.693,3.229-4.925c0.707-0.407,1.332-0.612,1.866-0.612c0.375,0,0.552,0.035,0.748,0.092l0.313,0.098v-0.755
			l-0.18-0.047c-0.284-0.076-0.546-0.107-0.878-0.107c-0.682,0-1.414,0.233-2.235,0.714c-0.259,0.139-0.508,0.306-0.773,0.479
			c-0.202,0.136-0.413,0.277-0.641,0.413c-0.369,0.228-0.846,0.341-1.411,0.341c-1.032,0-2.254-0.341-2.986-0.634
			c-0.682-0.284-1.2-0.515-1.642-0.717c-0.521-0.23-0.928-0.417-1.376-0.584l-0.11-0.041l-0.101,0.063
			c-1.733,1.076-3.75,3.349-5.142,5.792l-0.132,0.236l0.688,0.291l0.104-0.189c1.171-2.115,3.157-4.403,4.669-5.389
			c0.325,0.136,0.726,0.313,1.256,0.54l1.493,0.641c0.896,0.397,2.122,0.673,3.103,0.704l-1.979,1.383
			c-1.572,1.095-3.182,2.493-3.182,4.57v1.418l-3.652,0.893l0.101,0.724l3.551-0.881v3.093l-3.652,0.894l0.101,0.723l3.551-0.88
			v3.352c0,2.425-3.358,4.605-4.804,5.437l-1.616,0.931l0.486,0.574l1.537-0.88c1.474-0.831,4.11-1.683,5.969-1.683
			c3.037,0,5.366,1.168,7.614,2.301l0.638,0.319l0.925-0.896c1.597-1.554,2.98-2.896,4.444-4.06L167.683,382.212z M157.042,366.208
			c0.117-0.079,0.233-0.164,0.354-0.246c-0.344,0.69-0.552,1.515-0.552,2.677v11.319l-4.719,2.897
			c0.622-0.843,0.925-1.676,0.925-2.525v-9.331c0-1.632,1.086-2.73,2.844-3.98C156.243,366.764,156.634,366.492,157.042,366.208z"/>
		<polygon points="282.928,362.243 282.354,361.76 279.74,365.292 280.314,365.775 		"/>
		<path d="M264.695,385.109l-0.578-0.486l-0.155,0.148c-0.656,0.622-1.673,1.462-2.519,2.077c-0.795-0.457-1.616-1.117-1.758-2.797
			v-13.661c0.227-0.568,0.637-0.865,0.805-0.973l0.24-0.146l-0.483-0.568l-0.173,0.102c-0.341,0.199-0.691,0.571-0.941,0.994
			c-1.237-0.518-3.681-1.771-4.615-2.674l-0.164-0.157l-0.167,0.154c-1.809,1.701-3.353,2.914-5.502,4.318l-0.18,0.117l0.095,0.192
			c0.72,1.433,1.888,2.585,3.57,3.513c-1.02,0.56-2.399,1.308-3.775,2.008l-0.133,0.066v7.115l0.057,0.066
			c0.959,1.13,2.926,2.421,4.35,3.135l0.12,0.063l0.114-0.069c2.49-1.537,4.466-2.907,6.026-4.176v0.685
			c0.256,2.169,1.383,2.945,2.418,3.501l0.133,0.069l0.123-0.089c1.042-0.761,2.096-1.616,2.895-2.345L264.695,385.109z
			 M249.017,377.776c0.884-0.457,1.951-1.032,2.86-1.521c0.401-0.214,0.77-0.416,1.076-0.58c1.733,0.802,3.744,1.304,5.976,1.496
			v5.338c-1.506,1.301-3.577,2.765-6.168,4.353c-1.244-0.584-2.936-1.783-3.744-2.657V377.776z M249.471,371.792
			c1.919-1.244,3.359-2.438,4.884-3.826c0.997,0.809,3.393,2.046,4.574,2.538v5.944C254.48,376.072,250.898,374.308,249.471,371.792
			z"/>
		<path d="M286.416,384.109c-0.694,0.543-2.389,1.884-3.349,2.686c-0.562-0.407-1.086-0.779-1.733-1.225v-15.319l1.329-1.104
			l-0.48-0.578l-1.149,0.979c-0.669-0.622-1.414-1.431-2.219-2.399l-0.161-0.192l-2.611,2.374l0.48,0.571l2.055-1.885
			c0.739,0.843,1.411,1.553,2.001,2.124v14.918c-0.332-0.224-0.682-0.438-0.909-0.564l-0.356-0.195v0.852l0.117,0.069
			c0.95,0.565,2.557,1.692,3.494,2.415l0.152,0.117l0.148-0.123c0.966-0.809,2.771-2.267,3.649-2.939l0.199-0.154l-0.48-0.574
			L286.416,384.109z"/>
		<path d="M245.472,385.52c-0.107-0.164-0.215-0.328-0.325-0.495c-0.65-1.01-1.121-2.61-1.121-3.804v-11.554h2.768v-0.723h-3.15
			c-2.14-0.594-4.77-1.411-6-1.865l-0.145-0.054l-0.107,0.107c-1.313,1.313-2.573,2.301-4.801,3.156l-0.155,0.063v14.533
			l0.136,0.066c0.994,0.473,2.058,1,3.122,1.663c-1.061,0.932-3.141,2.828-4.24,4.341l-0.12,0.167l0.486,0.489l0.17-0.174
			c0.313-0.318,0.991-0.479,1.506-0.479c2.125,0,4.959,1.275,6.083,1.824l0.114,0.057l0.11-0.063
			c1.828-1.023,5.032-2.936,6.888-4.148l0.123-0.078l-0.013-0.143C246.699,387.389,246.103,386.482,245.472,385.52z
			 M233.495,390.242c-0.189,0-0.369,0.013-0.537,0.038c2.494-2.771,7.914-7.074,10.329-8.52c0.104,1.325,0.682,2.818,1.253,3.693
			l0.25,0.385c0.559,0.868,1.089,1.692,1.2,2.339c-1.519,1.014-4.438,2.746-6.351,3.816
			C237.182,390.833,235.115,390.242,233.495,390.242z M243.271,369.607v11.323c-1.238,0.625-3.99,2.667-6.989,5.189
			c-0.922-0.604-2.105-1.188-3.094-1.667v-13.599c1.727-0.698,3.053-1.569,4.504-2.964
			C238.912,368.319,241.39,369.062,243.271,369.607z"/>
		<path d="M232.185,385.106l-0.584-0.483l-0.154,0.148c-0.654,0.619-1.67,1.459-2.519,2.077c-0.796-0.457-1.616-1.117-1.762-2.797
			v-13.661c0.228-0.568,0.638-0.865,0.808-0.973l0.237-0.146l-0.479-0.568l-0.174,0.102c-0.341,0.199-0.691,0.571-0.941,0.994
			c-1.24-0.518-3.684-1.773-4.615-2.674l-0.164-0.157l-0.167,0.154c-1.821,1.711-3.362,2.923-5.502,4.318l-0.18,0.117l0.095,0.192
			c0.72,1.433,1.888,2.585,3.57,3.513c-1.089,0.594-2.409,1.311-3.775,2.008l-0.132,0.066v7.115l0.057,0.066
			c0.959,1.13,2.926,2.421,4.35,3.135l0.12,0.063l0.114-0.069c2.494-1.54,4.47-2.91,6.026-4.176v0.685
			c0.256,2.169,1.383,2.945,2.418,3.501l0.133,0.069l0.123-0.089c1.032-0.754,2.09-1.609,2.895-2.342L232.185,385.106z
			 M216.503,377.776c0.894-0.461,1.976-1.048,2.895-1.54c0.389-0.208,0.742-0.4,1.045-0.562c1.733,0.802,3.744,1.304,5.976,1.496
			v5.338c-1.509,1.304-3.583,2.769-6.168,4.353c-1.244-0.584-2.936-1.783-3.744-2.657v-6.428H216.503z M216.958,371.792
			c1.913-1.237,3.353-2.434,4.883-3.826c0.998,0.809,3.394,2.046,4.574,2.538v5.944
			C221.967,376.072,218.384,374.308,216.958,371.792z"/>
		<path d="M274.33,369.856c-0.215,0.184-0.508,0.284-0.802,0.284c-0.6,0-1.051-0.239-1.616-0.543l-0.146-0.079
			c-0.196-0.11-0.502-0.277-0.871-0.479c-0.957-0.521-2.399-1.31-3.63-2.074l-0.186-0.113l-0.132,0.174
			c-0.635,0.833-1.948,2.459-3.63,4.006l-0.167,0.154l0.477,0.574l0.186-0.167c1.294-1.174,2.737-2.835,3.453-3.763
			c1.288,0.768,2.882,1.632,3.757,2.103l0.413,0.224c0.72,0.373,1.225,0.635,1.774,0.698l-9.069,8.002l-0.173,0.151l0.473,0.584
			l1.689-1.503c0.836-0.735,1.278-0.792,1.859-0.792c3.684,0,5.881,1.8,5.881,4.813c0,3.116-3.485,5.85-6.285,8.04
			c-0.315,0.25-0.622,0.489-0.915,0.724c-0.865-0.234-1.84-0.486-2.851-0.486c-0.575,0-1.032,0.12-1.521,0.407l-0.186,0.104
			l0.306,0.711l0.24-0.171c0.189-0.133,0.653-0.328,1.162-0.328c0.957,0,1.862,0.23,2.945,0.533l0.12,0.035l0.095-0.079
			c0.382-0.31,0.789-0.628,1.209-0.963c2.87-2.257,6.439-5.063,6.439-8.522c0-2.681-1.742-5.54-6.635-5.54
			c-0.054,0-0.104,0.003-0.158,0.003l7.292-6.421l0.211-0.186l-0.584-0.474L274.33,369.856z"/>
	</g>
	<path d="M88.508,324.527l1.714,1.714c7.071-7.854,16.743-13.45,30.676-13.333c26.039,0.214,48.628,12.913,73.764,16.073
		l85.753-55.048l-2.592-2.592c-14.243,10.502-31.844,10.669-32.927,10.966c-0.192,0.009-0.363,0.019-0.502,0.022
		c-32.633,1.066-53.754-11.352-82.972-11.595C124.405,270.43,92.283,294.549,88.508,324.527 M473.023,256.95
		c-0.218-24.28-0.009-139.492-0.009-139.492c0.148-9.454,0.925-21.184,3.661-28.902c4.72-13.302,23.584-28.927,35.029-36.696
		c0,0-0.013-0.032-0.025-0.073l-2.755-2.755c-4.224,3.223-14.698,12.491-27.198,5.944c0,0-58.893-40.14-60.629-40.152
		c0,0-58.25,36.222-59.658,36.134c0,0-49.811-36.27-51.02-36.286c0,0-55.276,31.721-56.031,31.21
		c-3.432-14.54-12.27-21.272-14.022-22.778c-4.498-3.87-11.215-7.068-18.583-7.797c-18.504-1.821-29.954,3.807-42.693,8.021
		c0,0-22.299,8.144-27.816,9.129c-4.672,0.957-7.784,1.048-10.704-1.319c-4.053-3.141-2.333-8.169-0.366-11.582
		c0.909-1.572,2.118-3.106,3.141-4.448c0.802-1.044,6.935-8.352,8.271-10.003l-1.944-1.945c-6.828,6.023-20.843,17.194-27.248,24.23
		l-0.035-0.019c0,0-14.407,13.627-16.702,27.914c-1.237,7.687,0.695,19.761,11.348,25.664c11.617,6.439,28.896,1.761,28.896,1.761
		s20.303-6.136,30.222-8.892c4.265-1.184,22.055-7.522,22.055,8.874l0.199,117.657c0.136,15.758,0.436,33.106-2.39,44.635
		c-2.434,14.18-8.444,17.302-9.656,19.028l2.342,2.346c6.364-3.693,46.191-27.688,46.191-27.688
		c8.772-5.215,13.447-12.033,15.029-14.975c5.303-9.881,5.262-23.905,5.133-38.139l-0.079-127.462
		c0.066-8.324,6.547-21.813,30.743-2.188l23.094,16.266c0.732,10.088,0.291,190.181,0.291,190.181
		c0.139,15.755,1.533,33.104-1.291,44.632c-2.756,14.167-8.419,17.342-9.48,19.085l2.383,2.383
		c6.146-3.64,44.329-27.778,44.329-27.778c8.769-5.215,13.447-12.033,15.028-14.975c5.3-9.881,5.259-23.906,5.133-38.139
		c-0.114-12.801-0.034-181.374-0.034-181.374c-1.305-15.755,9.693-23.855,24.277-14.442c9.504,5.029,56.159,34.126,56.159,34.126
		c-23.937,12.803-27.282,32.652-27.75,51.731c-0.228,9.419-0.031,131.436-0.031,131.436c-0.051,12.472-1.266,25.616,3.062,35.642
		c4.669,9.334,31.368,24.013,31.368,24.013c1.407,0.013,38.126-21.008,53.113-29.622l18.122-9.758l-2.601-2.604
		c-14.54,8.952-20.698,8.33-25.55,7.572l-0.01,0.007C474.451,289.06,473.1,265.641,473.023,256.95"/>
</g>
</svg>
